HIERARCHY
ROOT mixamorig:Hips
{
	OFFSET 0.000000 103.991501 0.000000
	CHANNELS 6 Xposition Yposition Zposition Xrotation Yrotation Zrotation
	JOINT mixamorig:Spine
	{
		OFFSET 0.000000 10.181602 0.131500
		CHANNELS 6 Xposition Yposition Zposition Xrotation Yrotation Zrotation
		JOINT mixamorig:Spine1
		{
			OFFSET 0.000000 10.083504 -1.000800
			CHANNELS 6 Xposition Yposition Zposition Xrotation Yrotation Zrotation
			JOINT mixamorig:Spine2
			{
				OFFSET 0.000000 9.100006 -1.373400
				CHANNELS 6 Xposition Yposition Zposition Xrotation Yrotation Zrotation
				JOINT mixamorig:Neck
				{
					OFFSET 0.000000 16.671707 -2.516200
					CHANNELS 6 Xposition Yposition Zposition Xrotation Yrotation Zrotation
					JOINT mixamorig:Head
					{
						OFFSET 0.000000 9.617905 1.685000
						CHANNELS 6 Xposition Yposition Zposition Xrotation Yrotation Zrotation
						JOINT mixamorig:HeadTop_End
						{
							OFFSET 0.000000 17.815201 2.585000
							CHANNELS 6 Xposition Yposition Zposition Xrotation Yrotation Zrotation
							End Site
							{
								OFFSET 0.000000 13.794495 0.000000
							}
						}
						JOINT mixamorig:LeftEye
						{
							OFFSET 3.067600 6.409500 9.283600
							CHANNELS 6 Xposition Yposition Zposition Xrotation Yrotation Zrotation
							End Site
							{
								OFFSET 0.000000 13.794495 0.000000
							}
						}
						JOINT mixamorig:RightEye
						{
							OFFSET -3.067600 6.409500 9.283500
							CHANNELS 6 Xposition Yposition Zposition Xrotation Yrotation Zrotation
							End Site
							{
								OFFSET 0.000000 13.794495 0.000000
							}
						}
					}
				}
				JOINT mixamorig:LeftShoulder
				{
					OFFSET 4.570400 10.945999 -2.628000
					CHANNELS 6 Xposition Yposition Zposition Xrotation Yrotation Zrotation
					JOINT mixamorig:LeftArm
					{
						OFFSET 10.592400 -0.524597 -2.232100
						CHANNELS 6 Xposition Yposition Zposition Xrotation Yrotation Zrotation
						JOINT mixamorig:LeftForeArm
						{
							OFFSET 27.841499 0.000000 0.000000
							CHANNELS 6 Xposition Yposition Zposition Xrotation Yrotation Zrotation
							JOINT mixamorig:LeftHand
							{
								OFFSET 28.328800 0.000000 0.000000
								CHANNELS 6 Xposition Yposition Zposition Xrotation Yrotation Zrotation
								JOINT mixamorig:LeftHandThumb1
								{
									OFFSET 2.466103 -1.576218 2.681689
									CHANNELS 6 Xposition Yposition Zposition Xrotation Yrotation Zrotation
									JOINT mixamorig:LeftHandThumb2
									{
										OFFSET 3.229782 -1.864716 1.864716
										CHANNELS 6 Xposition Yposition Zposition Xrotation Yrotation Zrotation
										JOINT mixamorig:LeftHandThumb3
										{
											OFFSET 2.652611 -1.531494 1.531488
											CHANNELS 6 Xposition Yposition Zposition Xrotation Yrotation Zrotation
											JOINT mixamorig:LeftHandThumb4
											{
												OFFSET 1.954605 -1.128494 1.128493
												CHANNELS 6 Xposition Yposition Zposition Xrotation Yrotation Zrotation
												End Site
												{
													OFFSET -0.000404 2.523392 0.000683
												}
											}
										}
									}
								}
								JOINT mixamorig:LeftHandIndex1
								{
									OFFSET 9.109299 -0.518112 2.259867
									CHANNELS 6 Xposition Yposition Zposition Xrotation Yrotation Zrotation
									JOINT mixamorig:LeftHandIndex2
									{
										OFFSET 3.676399 0.000000 0.000000
										CHANNELS 6 Xposition Yposition Zposition Xrotation Yrotation Zrotation
										JOINT mixamorig:LeftHandIndex3
										{
											OFFSET 2.883102 0.000000 0.000000
											CHANNELS 6 Xposition Yposition Zposition Xrotation Yrotation Zrotation
											JOINT mixamorig:LeftHandIndex4
											{
												OFFSET 2.392700 0.000000 0.000000
												CHANNELS 6 Xposition Yposition Zposition Xrotation Yrotation Zrotation
												End Site
												{
													OFFSET 0.000000 2.392700 0.001080
												}
											}
										}
									}
								}
								JOINT mixamorig:LeftHandMiddle1
								{
									OFFSET 9.533401 0.000000 0.000000
									CHANNELS 6 Xposition Yposition Zposition Xrotation Yrotation Zrotation
									JOINT mixamorig:LeftHandMiddle2
									{
										OFFSET 3.698196 0.000000 0.000000
										CHANNELS 6 Xposition Yposition Zposition Xrotation Yrotation Zrotation
										JOINT mixamorig:LeftHandMiddle3
										{
											OFFSET 2.950897 0.000000 0.000000
											CHANNELS 6 Xposition Yposition Zposition Xrotation Yrotation Zrotation
											JOINT mixamorig:LeftHandMiddle4
											{
												OFFSET 2.833900 0.000000 0.000000
												CHANNELS 6 Xposition Yposition Zposition Xrotation Yrotation Zrotation
												End Site
												{
													OFFSET 0.000000 2.833893 0.001278
												}
											}
										}
									}
								}
								JOINT mixamorig:LeftHandRing1
								{
									OFFSET 9.104500 -0.043060 -1.865119
									CHANNELS 6 Xposition Yposition Zposition Xrotation Yrotation Zrotation
									JOINT mixamorig:LeftHandRing2
									{
										OFFSET 3.153999 0.000000 0.000000
										CHANNELS 6 Xposition Yposition Zposition Xrotation Yrotation Zrotation
										JOINT mixamorig:LeftHandRing3
										{
											OFFSET 2.937698 0.000000 0.000000
											CHANNELS 6 Xposition Yposition Zposition Xrotation Yrotation Zrotation
											JOINT mixamorig:LeftHandRing4
											{
												OFFSET 2.647499 0.000000 0.000000
												CHANNELS 6 Xposition Yposition Zposition Xrotation Yrotation Zrotation
												End Site
												{
													OFFSET 0.000000 2.647507 0.001195
												}
											}
										}
									}
								}
								JOINT mixamorig:LeftHandPinky1
								{
									OFFSET 8.077797 -0.486984 -3.806321
									CHANNELS 6 Xposition Yposition Zposition Xrotation Yrotation Zrotation
									JOINT mixamorig:LeftHandPinky2
									{
										OFFSET 3.599998 0.000000 0.000000
										CHANNELS 6 Xposition Yposition Zposition Xrotation Yrotation Zrotation
										JOINT mixamorig:LeftHandPinky3
										{
											OFFSET 2.114197 0.000000 0.000000
											CHANNELS 6 Xposition Yposition Zposition Xrotation Yrotation Zrotation
											JOINT mixamorig:LeftHandPinky4
											{
												OFFSET 1.975700 0.000000 0.000000
												CHANNELS 6 Xposition Yposition Zposition Xrotation Yrotation Zrotation
												End Site
												{
													OFFSET 0.000000 1.975693 0.000892
												}
											}
										}
									}
								}
							}
						}
					}
				}
				JOINT mixamorig:RightShoulder
				{
					OFFSET -4.570000 10.946198 -2.628000
					CHANNELS 6 Xposition Yposition Zposition Xrotation Yrotation Zrotation
					JOINT mixamorig:RightArm
					{
						OFFSET -10.592800 -0.524796 -2.232100
						CHANNELS 6 Xposition Yposition Zposition Xrotation Yrotation Zrotation
						JOINT mixamorig:RightForeArm
						{
							OFFSET -27.841499 0.000000 0.000000
							CHANNELS 6 Xposition Yposition Zposition Xrotation Yrotation Zrotation
							JOINT mixamorig:RightHand
							{
								OFFSET -28.328800 0.000000 0.000000
								CHANNELS 6 Xposition Yposition Zposition Xrotation Yrotation Zrotation
								JOINT mixamorig:RightHandPinky1
								{
									OFFSET -8.076698 -0.486725 -3.806227
									CHANNELS 6 Xposition Yposition Zposition Xrotation Yrotation Zrotation
									JOINT mixamorig:RightHandPinky2
									{
										OFFSET -3.599998 0.000000 0.000000
										CHANNELS 6 Xposition Yposition Zposition Xrotation Yrotation Zrotation
										JOINT mixamorig:RightHandPinky3
										{
											OFFSET -2.114197 0.000000 0.000000
											CHANNELS 6 Xposition Yposition Zposition Xrotation Yrotation Zrotation
											JOINT mixamorig:RightHandPinky4
											{
												OFFSET -1.975700 0.000000 0.000000
												CHANNELS 6 Xposition Yposition Zposition Xrotation Yrotation Zrotation
												End Site
												{
													OFFSET 0.000000 1.975693 0.000919
												}
											}
										}
									}
								}
								JOINT mixamorig:RightHandRing1
								{
									OFFSET -9.103600 -0.043030 -1.865120
									CHANNELS 6 Xposition Yposition Zposition Xrotation Yrotation Zrotation
									JOINT mixamorig:RightHandRing2
									{
										OFFSET -3.153999 0.000000 0.000000
										CHANNELS 6 Xposition Yposition Zposition Xrotation Yrotation Zrotation
										JOINT mixamorig:RightHandRing3
										{
											OFFSET -2.937698 0.000000 0.000000
											CHANNELS 6 Xposition Yposition Zposition Xrotation Yrotation Zrotation
											JOINT mixamorig:RightHandRing4
											{
												OFFSET -2.647499 0.000000 0.000000
												CHANNELS 6 Xposition Yposition Zposition Xrotation Yrotation Zrotation
												End Site
												{
													OFFSET 0.000000 2.647507 0.001231
												}
											}
										}
									}
								}
								JOINT mixamorig:RightHandMiddle1
								{
									OFFSET -9.532501 0.000000 0.000000
									CHANNELS 6 Xposition Yposition Zposition Xrotation Yrotation Zrotation
									JOINT mixamorig:RightHandMiddle2
									{
										OFFSET -3.698196 0.000000 0.000000
										CHANNELS 6 Xposition Yposition Zposition Xrotation Yrotation Zrotation
										JOINT mixamorig:RightHandMiddle3
										{
											OFFSET -2.950897 0.000000 0.000000
											CHANNELS 6 Xposition Yposition Zposition Xrotation Yrotation Zrotation
											JOINT mixamorig:RightHandMiddle4
											{
												OFFSET -2.833900 0.000000 0.000000
												CHANNELS 6 Xposition Yposition Zposition Xrotation Yrotation Zrotation
												End Site
												{
													OFFSET 0.000000 2.833893 0.001318
												}
											}
										}
									}
								}
								JOINT mixamorig:RightHandIndex1
								{
									OFFSET -9.108299 -0.517853 2.259859
									CHANNELS 6 Xposition Yposition Zposition Xrotation Yrotation Zrotation
									JOINT mixamorig:RightHandIndex2
									{
										OFFSET -3.676399 0.000000 0.000000
										CHANNELS 6 Xposition Yposition Zposition Xrotation Yrotation Zrotation
										JOINT mixamorig:RightHandIndex3
										{
											OFFSET -2.883102 0.000000 0.000000
											CHANNELS 6 Xposition Yposition Zposition Xrotation Yrotation Zrotation
											JOINT mixamorig:RightHandIndex4
											{
												OFFSET -2.392700 0.000000 0.000000
												CHANNELS 6 Xposition Yposition Zposition Xrotation Yrotation Zrotation
												End Site
												{
													OFFSET 0.000000 2.392700 0.001113
												}
											}
										}
									}
								}
								JOINT mixamorig:RightHandThumb1
								{
									OFFSET -2.464798 -1.573944 2.681868
									CHANNELS 6 Xposition Yposition Zposition Xrotation Yrotation Zrotation
									JOINT mixamorig:RightHandThumb2
									{
										OFFSET -3.229782 -1.864716 1.864716
										CHANNELS 6 Xposition Yposition Zposition Xrotation Yrotation Zrotation
										JOINT mixamorig:RightHandThumb3
										{
											OFFSET -2.652542 -1.531448 1.531448
											CHANNELS 6 Xposition Yposition Zposition Xrotation Yrotation Zrotation
											JOINT mixamorig:RightHandThumb4
											{
												OFFSET -1.954605 -1.128494 1.128493
												CHANNELS 6 Xposition Yposition Zposition Xrotation Yrotation Zrotation
												End Site
												{
													OFFSET 0.000412 2.523392 0.000704
												}
											}
										}
									}
								}
							}
						}
					}
				}
			}
		}
	}
	JOINT mixamorig:LeftUpLeg
	{
		OFFSET 8.207800 -6.751701 -1.599600
		CHANNELS 6 Xposition Yposition Zposition Xrotation Yrotation Zrotation
		JOINT mixamorig:LeftLeg
		{
			OFFSET 0.000000 -44.370499 0.284600
			CHANNELS 6 Xposition Yposition Zposition Xrotation Yrotation Zrotation
			JOINT mixamorig:LeftFoot
			{
				OFFSET 0.000000 -44.427898 -2.982200
				CHANNELS 6 Xposition Yposition Zposition Xrotation Yrotation Zrotation
				JOINT mixamorig:LeftToeBase
				{
					OFFSET 0.000000 -8.728700 10.710600
					CHANNELS 6 Xposition Yposition Zposition Xrotation Yrotation Zrotation
					JOINT mixamorig:LeftToe_End
					{
						OFFSET 0.000000 -0.000700 9.278099
						CHANNELS 6 Xposition Yposition Zposition Xrotation Yrotation Zrotation
						End Site
						{
							OFFSET 0.000000 9.278100 0.000000
						}
					}
				}
			}
		}
	}
	JOINT mixamorig:RightUpLeg
	{
		OFFSET -8.207800 -6.751701 -1.599600
		CHANNELS 6 Xposition Yposition Zposition Xrotation Yrotation Zrotation
		JOINT mixamorig:RightLeg
		{
			OFFSET 0.000000 -44.370499 0.286200
			CHANNELS 6 Xposition Yposition Zposition Xrotation Yrotation Zrotation
			JOINT mixamorig:RightFoot
			{
				OFFSET 0.000000 -44.427700 -2.983800
				CHANNELS 6 Xposition Yposition Zposition Xrotation Yrotation Zrotation
				JOINT mixamorig:RightToeBase
				{
					OFFSET 0.000000 -8.728700 10.710600
					CHANNELS 6 Xposition Yposition Zposition Xrotation Yrotation Zrotation
					JOINT mixamorig:RightToe_End
					{
						OFFSET 0.000000 -0.000700 9.278100
						CHANNELS 6 Xposition Yposition Zposition Xrotation Yrotation Zrotation
						End Site
						{
							OFFSET 0.000000 9.278100 0.000000
						}
					}
				}
			}
		}
	}
}
MOTION
Frames: 3
Frame Time: 0.016667
-29.790873 97.296516 4.788124 -355.060854 -33.892696 371.064397 -0.000001 10.181604 0.131501 22.745660 -13.323989 14.498234 -0.000003 10.083496 -1.000793 2.279604 -1.756916 -5.067885 0.000001 9.100003 -1.373400 2.109089 -2.005575 -5.046703 0.000001 16.671713 -2.516185 -3.413008 -5.030039 8.209866 0.000002 9.617912 1.685007 3.741171 -13.920491 13.652662 0.000001 17.815186 2.584993 -0.000001 -0.000001 0.000000 3.067604 6.409485 9.283593 -0.000001 -0.000001 0.000000 -3.067599 6.409485 9.283502 -0.000001 -0.000001 0.000000 4.570404 10.945997 -2.627985 2.042773 -9.378025 8.119767 10.592397 -0.524612 -2.232087 -56.863972 -73.104341 -98.126452 27.841509 0.000018 -0.000001 0.000000 -2.797057 0.000003 28.328783 0.000017 -0.000003 -8.022177 -43.758952 34.420066 2.466101 -1.576214 2.681700 -1.627241 8.968108 6.932361 3.229794 -1.864698 1.864706 4.379934 13.244927 1.150282 2.652615 -1.531484 1.531490 -0.579480 1.575020 2.538710 1.954594 -1.128491 1.128481 0.000001 -0.000003 -0.000002 9.109299 -0.518107 2.259875 0.006356 0.296782 -2.460032 3.676400 0.000009 0.000008 0.499380 2.578925 -21.914828 2.883097 0.000009 0.000009 0.434027 2.410272 -20.413224 2.392704 0.000011 -0.000007 0.000001 0.000003 -0.000001 9.533401 -0.000006 0.000008 0.262160 1.885525 -15.830468 3.698200 -0.000012 0.000003 0.705867 3.041713 -26.124215 2.950904 -0.000000 -0.000005 0.647153 2.919113 -24.995082 2.833907 -0.000014 -0.000002 0.000000 0.000001 0.000001 9.104493 -0.043072 -1.865113 1.126996 3.779955 -33.193493 3.153992 0.000001 0.000006 1.321672 4.061332 -36.040108 2.937697 -0.000005 -0.000003 1.002422 3.582734 -31.253474 2.647501 -0.000015 -0.000002 0.000001 -0.000001 -0.000001 8.077772 -0.486952 -3.806312 6.711154 7.995544 -57.968779 3.599981 -0.000014 -0.000002 1.895303 0.660926 -43.660369 2.114192 0.000003 0.000008 1.213475 3.908674 -34.483327 1.975692 0.000003 -0.000002 0.000001 -0.000000 0.000000 -4.569999 10.946208 -2.627987 3.952116 13.768802 10.743719 -10.592799 -0.524795 -2.232098 -12.609694 52.510286 47.909614 -27.841518 0.000001 -0.000001 -0.000001 0.026193 0.000018 -28.328798 0.000012 -0.000001 -7.714138 -9.111659 -28.242544 -8.076681 -0.486748 -3.806227 0.665801 -2.973969 25.233043 -3.599984 -0.000012 0.000002 0.773462 -3.192116 27.234515 -2.114187 -0.000002 -0.000001 0.509597 -2.617399 22.031228 -1.975706 0.000001 0.000001 -0.000001 0.000000 -0.000004 -9.103593 -0.043043 -1.865119 0.230206 -1.777803 14.755242 -3.153991 -0.000019 0.000001 0.479597 -2.542081 21.364716 -2.937713 0.000020 -0.000002 0.478526 -2.539347 21.340608 -2.647485 -0.000003 -0.000000 -0.000000 0.000000 0.000000 -9.532492 -0.000026 0.000000 0.061101 -0.921656 7.585547 -3.698206 -0.000005 0.000001 0.257571 -1.878572 15.612942 -2.950887 -0.000008 -0.000001 0.402572 -2.335818 19.554900 -2.833885 -0.000030 -0.000001 -0.000000 -0.000001 0.000000 -9.108292 -0.517861 2.259860 0.005527 -0.277775 2.279936 -3.676406 -0.000012 0.000000 0.182506 -1.585747 13.129991 -2.883110 -0.000005 0.000000 0.411345 -2.360339 19.768961 -2.392692 0.000000 0.000001 0.000000 -0.000001 -0.000000 -2.464794 -1.573942 2.681870 -2.030264 -12.017200 -7.916343 -3.229788 -1.864720 1.864715 5.396308 -17.106682 -0.803883 -2.652550 -1.531453 1.531442 -1.273775 0.137313 -2.094874 -1.954608 -1.128510 1.128494 0.000001 -0.000000 0.000004 8.207800 -6.751711 -1.599599 -11.217589 14.305585 15.120540 -0.000001 -44.370499 0.284602 38.458920 -9.499332 -9.961966 0.000000 -44.427895 -2.982199 4.643857 11.714589 -7.178904 -0.000000 -8.728700 10.710598 -23.776529 0.150284 -3.814907 -0.000000 -0.000700 9.278098 -0.000001 -0.000001 0.000000 -8.207800 -6.751710 -1.599598 -35.392958 -5.513779 -11.013308 -0.000001 -44.370499 0.286199 45.635045 6.935070 -6.658970 0.000003 -44.427708 -2.983800 -13.938999 -24.261197 -2.532298 -0.000001 -8.728701 10.710600 -2.584261 0.000015 0.000006 0.000001 -0.000699 9.278103 -0.000000 0.000001 -0.000000 
-28.665037 97.335083 5.128869 -355.872445 -30.254480 372.855027 0.000001 10.181608 0.131500 22.928226 -15.443922 15.030992 -0.000004 10.083502 -1.000802 2.788063 -2.059307 -4.847778 -0.000003 9.099993 -1.373409 2.595794 -2.312478 -4.837021 -0.000003 16.671713 -2.516199 -3.767666 -5.132946 8.268805 -0.000002 9.617898 1.684989 3.191769 -14.244056 13.485362 0.000003 17.815201 2.585006 -0.000001 0.000000 -0.000000 3.067599 6.409500 9.283609 -0.000001 0.000000 -0.000000 -3.067601 6.409500 9.283508 -0.000001 0.000000 -0.000000 4.570397 10.946000 -2.628000 2.109343 -9.403270 9.638277 10.592398 -0.524578 -2.232116 -70.753356 -74.531373 -108.035581 27.841494 -0.000004 0.000004 -0.000008 -4.715153 0.000017 28.328787 0.000008 -0.000006 -8.162144 -48.513717 27.557952 2.466101 -1.576211 2.681691 -1.627239 8.968109 6.932357 3.229786 -1.864728 1.864724 4.379930 13.244927 1.150285 2.652620 -1.531500 1.531489 -0.579481 1.575021 2.538712 1.954609 -1.128485 1.128497 -0.000000 0.000000 -0.000005 9.109302 -0.518100 2.259870 0.012800 -0.420549 3.487069 3.676388 -0.000012 -0.000004 0.373201 2.240150 -18.913767 2.883097 0.000011 -0.000007 0.425546 2.387411 -20.210929 2.392687 -0.000002 -0.000012 0.000001 -0.000001 0.000002 9.533401 0.000003 0.000002 0.158184 1.470346 -12.280285 3.698191 -0.000015 -0.000005 0.591906 2.797670 -23.886937 2.950900 -0.000009 0.000001 0.628724 2.879336 -24.630977 2.833913 -0.000000 -0.000001 -0.000000 0.000003 0.000001 9.104493 -0.043070 -1.865117 1.001856 3.581794 -31.244393 3.153995 -0.000010 -0.000008 1.262090 3.978344 -35.190156 2.937681 0.000002 0.000010 1.013159 3.600322 -31.424922 2.647489 -0.000025 -0.000002 0.000002 -0.000000 0.000001 8.077805 -0.486976 -3.806318 6.596907 7.992319 -57.147267 3.599982 -0.000025 -0.000000 1.935040 0.702216 -44.135713 2.114189 0.000004 0.000003 1.260121 3.975565 -35.161800 1.975698 0.000001 0.000001 0.000000 -0.000000 0.000001 -4.570002 10.946167 -2.627997 3.897708 13.522221 10.416275 -10.592812 -0.524794 -2.232100 -11.012467 50.994291 47.286564 -27.841505 0.000007 -0.000001 -0.000003 0.022703 0.000010 -28.328812 -0.000006 -0.000000 -7.898693 -9.323258 -24.220850 -8.076707 -0.486734 -3.806227 0.483539 -2.552119 21.453406 -3.599969 -0.000017 0.000001 0.779950 -3.204675 27.350840 -2.114197 0.000004 0.000002 0.555158 -2.727177 23.008510 -1.975704 0.000023 -0.000002 0.000001 -0.000001 0.000002 -9.103601 -0.043040 -1.865120 0.166567 -1.515790 12.540843 -3.154005 -0.000014 -0.000003 0.453618 -2.474713 20.771201 -2.937709 -0.000006 -0.000000 0.487526 -2.562236 21.542772 -2.647500 0.000001 0.000000 0.000000 -0.000000 0.000000 -9.532502 0.000006 0.000001 0.044016 -0.782727 6.436705 -3.698193 0.000009 0.000002 0.234082 -1.792440 14.879584 -2.950889 -0.000015 -0.000001 0.385451 -2.287084 19.130381 -2.833887 -0.000002 0.000001 0.000000 -0.000001 0.000001 -9.108295 -0.517857 2.259859 0.003898 -0.233197 1.913898 -3.676408 -0.000005 0.000001 0.156594 -1.470286 12.158301 -2.883100 -0.000003 0.000001 0.373349 -2.251913 18.824725 -2.392700 -0.000015 0.000001 0.000000 -0.000001 0.000000 -2.464787 -1.573933 2.681871 -2.030264 -12.017198 -7.916336 -3.229794 -1.864688 1.864723 5.396307 -17.106682 -0.803881 -2.652538 -1.531457 1.531449 -1.273774 0.137309 -2.094876 -1.954607 -1.128496 1.128493 -0.000002 -0.000004 0.000001 8.207800 -6.751702 -1.599600 -9.021420 17.012266 12.630379 0.000006 -44.370495 0.284601 34.698478 -9.595623 -10.067305 -0.000001 -44.427898 -2.982200 4.514549 10.283645 -9.670674 0.000001 -8.728700 10.710599 -23.749763 0.145014 -3.783441 -0.000000 -0.000700 9.278099 -0.000000 -0.000000 -0.000000 -8.207799 -6.751689 -1.599599 -34.534990 -1.238574 -13.103288 0.000002 -44.370495 0.286196 46.771407 6.896819 -7.818084 -0.000000 -44.427700 -2.983802 -12.525469 -27.120634 0.272095 -0.000005 -8.728700 10.710603 -3.484207 -0.000016 -0.000001 0.000001 -0.000700 9.278101 0.000001 -0.000000 0.000001 
-27.540676 97.520447 5.468701 -356.684937 -27.137132 374.713522 -0.000000 10.181605 0.131503 23.198850 -17.351361 15.390865 -0.000002 10.083492 -1.000798 3.074734 -2.330624 -4.608892 0.000003 9.100004 -1.373403 2.865765 -2.582814 -4.605723 0.000004 16.671709 -2.516200 -4.013492 -5.203872 8.285712 -0.000004 9.617922 1.685011 2.664018 -14.498367 13.040718 0.000001 17.815201 2.584999 -0.000000 -0.000002 0.000000 3.067597 6.409500 9.283603 -0.000000 -0.000002 0.000000 -3.067600 6.409500 9.283502 -0.000000 -0.000002 0.000000 4.570401 10.946011 -2.627995 2.197525 -9.539471 11.058133 10.592399 -0.524568 -2.232090 -81.996851 -74.936744 -115.489251 27.841499 0.000003 -0.000004 -0.000005 -6.750247 0.000004 28.328787 0.000026 -0.000005 -9.563931 -51.562942 19.141107 2.466109 -1.576224 2.681690 -1.627236 8.968114 6.932357 3.229794 -1.864728 1.864718 4.379938 13.244929 1.150285 2.652606 -1.531479 1.531493 -0.579475 1.575018 2.538714 1.954610 -1.128483 1.128498 -0.000004 -0.000003 -0.000002 9.109299 -0.518111 2.259859 0.064115 -0.939468 7.809628 3.676380 0.000005 -0.000001 0.247487 1.832950 -15.377599 2.883099 -0.000007 -0.000006 0.405893 2.333366 -19.733654 2.392713 -0.000016 0.000000 0.000000 0.000003 -0.000002 9.533408 0.000003 -0.000010 0.092254 1.125742 -9.371220 3.698203 0.000016 -0.000005 0.478395 2.526175 -21.443534 2.950904 -0.000003 -0.000001 0.600304 2.816575 -24.058817 2.833910 0.000002 -0.000003 -0.000000 -0.000000 -0.000001 9.104501 -0.043068 -1.865127 0.871075 3.357209 -29.083919 3.153996 0.000016 -0.000015 1.188084 3.871536 -34.109166 2.937695 -0.000001 -0.000005 1.014828 3.603064 -31.451587 2.647490 -0.000001 -0.000002 -0.000001 0.000003 0.000001 8.077811 -0.486972 -3.806318 6.327578 7.978281 -55.208761 3.599974 -0.000011 0.000002 1.966602 0.734556 -44.510526 2.114186 0.000011 0.000004 1.303484 4.036273 -35.782463 1.975700 -0.000011 -0.000001 0.000002 -0.000001 0.000000 -4.569993 10.946199 -2.628006 3.797537 13.059365 9.933442 -10.592796 -0.524800 -2.232101 -9.337680 49.283291 46.465261 -27.841516 0.000005 0.000002 0.000005 0.587814 0.000014 -28.328794 0.000008 -0.000002 -8.279257 -9.664303 -19.398659 -8.076692 -0.486721 -3.806228 0.322576 -2.097201 17.486748 -3.599998 -0.000002 0.000001 0.755530 -3.157087 26.910715 -2.114204 -0.000010 0.000001 0.596935 -2.823420 23.871301 -1.975711 0.000003 -0.000003 -0.000001 0.000001 -0.000002 -9.103592 -0.043035 -1.865123 0.112732 -1.249517 10.310243 -3.154002 0.000018 -0.000001 0.418705 -2.380714 19.946956 -2.937702 -0.000008 0.000003 0.491227 -2.571572 21.625371 -2.647501 -0.000001 0.000000 0.000000 0.000000 0.000001 -9.532496 0.000006 -0.000001 0.031479 -0.662261 5.442664 -3.698201 -0.000003 0.000000 0.214123 -1.715598 14.227547 -2.950880 -0.000013 0.000001 0.367127 -2.233598 18.665823 -2.833902 -0.000016 0.000000 0.000000 0.000001 0.000001 -9.108294 -0.517847 2.259857 0.003870 -0.232367 1.907089 -3.676401 -0.000007 0.000001 0.140787 -1.394926 11.526054 -2.883092 -0.000006 0.000001 0.335377 -2.137382 17.833233 -2.392701 -0.000016 0.000001 0.000000 -0.000001 0.000000 -2.464789 -1.573948 2.681866 -2.030262 -12.017197 -7.916340 -3.229786 -1.864702 1.864719 5.396307 -17.106677 -0.803878 -2.652540 -1.531453 1.531452 -1.273771 0.137308 -2.094875 -1.954605 -1.128507 1.128491 0.000001 -0.000004 0.000000 8.207801 -6.751712 -1.599600 -6.016972 18.481720 9.569261 -0.000003 -44.370506 0.284601 30.531236 -7.633106 -10.241270 0.000000 -44.427902 -2.982198 4.727351 6.703834 -11.901848 0.000000 -8.728700 10.710600 -24.753743 0.079424 -1.315469 0.000001 -0.000700 9.278098 0.000000 0.000000 -0.000000 -8.207799 -6.751710 -1.599597 -32.607139 3.727443 -14.944961 -0.000000 -44.370499 0.286194 47.399337 6.811825 -9.061020 -0.000004 -44.427696 -2.983807 -10.286644 -28.910155 3.399728 0.000001 -8.728700 10.710594 -4.870098 -0.000031 -0.000007 -0.000001 -0.000700 9.278101 -0.000000 -0.000001 -0.000000 
